# xmcd
#
# Track frame offsets:
#	150
#	11468
#	23123
#	35168
#	46583
#	57653
#	70478
#	79546
#	93361
#	103299
#	115554
#	131642
#
# Disc length: 1896 seconds
#
# Revision: 1
# Processed by: cddbd v1.5.2PL0 Copyright (c) Steve Scherf et al.
# Submitted via: audiograbber 1.83.01
#
DISCID=9a07660c
DTITLE=Carl Smith - The Tall Tall Gentleman
DYEAR=1963
DGENRE=Country
TTITLE0=Back Up Buddy
TTITLE1=This Orchid Means Goodbye
TTITLE2=Loose Talk
TTITLE3=No More Loose Talkin'
TTITLE4=The Tall, Tall Gentleman
TTITLE5=Wait, A Little Longer, Please Jesus
TTITLE6=(When You Feel Like You're In Love)Don't Just Stand There
TTITLE7=Try To Take It Like A Man
TTITLE8=Before I Met You
TTITLE9=Live For Tommorrow
TTITLE10=Air Mail To Heaven
TTITLE11=I Dreamed Of The Old Rugged Cross
EXTD=
EXTT0=
EXTT1=
EXTT2=
EXTT3=
EXTT4=
EXTT5=
EXTT6=
EXTT7=
EXTT8=
EXTT9=
EXTT10=
EXTT11=
PLAYORDER=
